<?xml version="1.0" encoding="UTF-8" standalone="no"?>
<!-- Created with Inkscape (http://www.inkscape.org/) -->

<svg
   xmlns:dc="http://purl.org/dc/elements/1.1/"
   xmlns:cc="http://creativecommons.org/ns#"
   xmlns:rdf="http://www.w3.org/1999/02/22-rdf-syntax-ns#"
   xmlns:svg="http://www.w3.org/2000/svg"
   xmlns="http://www.w3.org/2000/svg"
   version="1.2"
   width="1000.0536"
   height="687.06873"
   id="svg2">
  <defs
     id="defs4" />
  <metadata
     id="metadata7">
    <rdf:RDF>
      <cc:Work
         rdf:about="">
        <dc:format>image/svg+xml</dc:format>
        <dc:type
           rdf:resource="http://purl.org/dc/dcmitype/StillImage" />
        <dc:title></dc:title>
      </cc:Work>
    </rdf:RDF>
  </metadata>
  <g
     transform="translate(0.0268678,-365.26576)"
     id="layer1">
    <g
       transform="matrix(1.232522,0,0,1.3118281,-151.27625,-151.72716)"
       id="g2852">
      <flowRoot
         transform="translate(-48.571429,447.14286)"
         id="flowRoot4001"
         xml:space="preserve"
         style="font-size:40px;font-style:normal;font-weight:normal;fill:#000000;fill-opacity:1;stroke:none;font-family:Bitstream Vera Sans"><flowRegion
           id="flowRegion4003"><rect
             width="247.14285"
             height="159.28572"
             x="195.71428"
             y="140.21931"
             id="rect4005" /></flowRegion><flowPara
           id="flowPara4007" /></flowRoot>      <flowRoot
         transform="translate(-48.571429,447.14286)"
         id="flowRoot4009"
         xml:space="preserve"
         style="font-size:40px;font-style:normal;font-weight:normal;fill:#000000;fill-opacity:1;stroke:none;font-family:Bitstream Vera Sans"><flowRegion
           id="flowRegion4011"><rect
             width="304.28571"
             height="190.71428"
             x="150"
             y="88.790749"
             id="rect4013" /></flowRegion><flowPara
           id="flowPara4015" /></flowRoot>      <flowRoot
         transform="translate(-48.571429,447.14286)"
         id="flowRoot4017"
         xml:space="preserve"
         style="font-size:40px;font-style:normal;font-weight:normal;fill:#000000;fill-opacity:1;stroke:none;font-family:Bitstream Vera Sans"><flowRegion
           id="flowRegion4019"><rect
             width="317.85715"
             height="181.42857"
             x="173.57143"
             y="121.6479"
             id="rect4021" /></flowRegion><flowPara
           id="flowPara4023" /></flowRoot>      <path
         d="m 735.2996,394.76793 0,353.51322 -611.87452,0 0,9.33112 611.87452,0 0,159.57108 9.33112,0 0,-159.57108 188.76295,0 0,-9.33112 -188.76295,0 0,-353.51322 -9.33112,0 z"
         id="path2971"
         style="fill:#000000;fill-opacity:1;fill-rule:nonzero;stroke:#ffffff;stroke-width:1.37586331;stroke-opacity:1" />
      <path
         d="m 127.76345,912.54165 607.52907,0 0,-154.93081 -607.52907,0 0,154.93081 z"
         id="path2979"
         style="fill:#000000;fill-opacity:1;fill-rule:nonzero;stroke:none" />
      <path
         d="m 744.63102,748.27076 187.07314,0 0,-349.36986 -187.07314,0 0,349.36986 z"
         id="path2977"
         style="fill:#000000;fill-opacity:1;fill-rule:nonzero;stroke:none" />
      <path
         d="m 151.11064,889.19496 0,23.34669 -23.34719,0 0,-23.34669 c 0,-270.78282 219.51169,-490.29406 490.29282,-490.29406 l 0,0 0,0 c 172.27852,0 311.93576,139.65892 311.93576,311.93574 l 0,0 c 0,111.3984 -90.30664,201.70501 -201.70504,201.70501 l 0,0 c -73.77249,0 -133.57742,-59.80492 -133.57742,-133.57741 l 0,0 0,0 c 0,-50.51998 40.9543,-91.47429 91.47428,-91.47429 l 0,0 0,0 c 36.14662,0 65.45153,29.30321 65.45153,65.45153 l -23.34839,0 0,0 c 0,-23.25421 -18.85062,-42.10484 -42.10314,-42.10484 l 0,0 0,0 c -37.62587,0 -68.12758,30.50169 -68.12758,68.1276 0,4.03549 0.35099,7.98882 1.02385,11.83086 l -1.02385,-11.83086 0,0 c 0,60.87842 49.3523,110.23072 110.23072,110.23072 l 0,0 0,0 c 98.50601,0 178.35837,-79.85401 178.35837,-178.35832 l 0,0 c 0,-159.38272 -129.20467,-288.58904 -288.58909,-288.58904 l 0,0 0,0 c -257.88703,0 -466.94563,209.06035 -466.94563,466.94736 l 0,0"
         id="path2983"
         style="fill:#ffffff;fill-opacity:1;fill-rule:nonzero;stroke:none" />
      <path
         d="M 899.39251,757.78428 C 880.22023,828.5257 818.62103,881.81614 743.58815,888.63426 l 0,23.41344 c 87.97588,-7.05166 160.01887,-70.5557 179.90263,-154.26342 l -24.09827,0 z"
         id="path2981-4"
         style="fill:#000000;fill-opacity:1;fill-rule:nonzero;stroke:none" />
      <path
         d="m 611.66939,399.40488 c -122.30609,1.54921 -233.84553,47.91654 -318.93164,123.3968 l 0,-0.52199 c -13.2716,11.73405 -25.85986,24.17923 -37.79158,37.2696 l 0,0.62637 c -48.54542,53.4482 -85.43407,117.67893 -106.69333,188.64468 l 24.42881,0 c 59.75411,-189.0211 236.47215,-326.13501 445.25154,-326.13501 41.74117,0 81.41479,8.90161 117.2374,24.84639 l 0,-25.36837 c -36.19643,-14.69147 -75.76772,-22.75847 -117.2374,-22.75847 l -6.2638,0 z m 74.43479,288.55223 c -39.75581,0 -73.61936,25.43656 -86.2316,60.86323 l 25.47278,0 c 11.22739,-22.20371 34.1774,-37.47838 60.75882,-37.47838 21.68055,0 39.54817,16.41295 41.86304,37.47838 l 7.20337,0 0,-38.62674 c -11.9945,-13.62141 -29.4909,-22.23649 -49.06641,-22.23649 z"
         id="path2975-6"
         style="fill:#000000;fill-opacity:1;fill-rule:nonzero;stroke:none" />
      <g
         transform="matrix(3.3406916,0,0,3.3406916,-13.176528,-1338.4471)"
         id="g2878">
        <path
           d="m 81.250475,583.8396 0,23.48862 -14.439725,0 0,-70.17706 14.439725,0 0,30.80476 27.435475,-30.80476 17.03888,0 -28.013069,30.22717 30.997269,39.94989 -17.23141,0 -23.007277,-30.99727 -7.219868,7.50865"
           id="path4034"
           style="font-size:144px;font-style:normal;font-variant:normal;font-weight:bold;font-stretch:normal;fill:#000000;fill-opacity:1;stroke:none;font-family:FreeSans;-inkscape-font-specification:Balker Bold" />
        <path
           d="m 145.15827,552.6498 0,54.67842 -14.43972,0 0,-70.17706 21.56331,0 12.70696,55.8336 12.32191,-55.8336 21.75585,0 0,70.17706 -14.43974,0 0,-54.67842 -12.41814,54.67842 -14.43973,0 -12.6107,-54.67842"
           id="path4036"
           style="font-size:144px;font-style:normal;font-variant:normal;font-weight:bold;font-stretch:normal;fill:#000000;fill-opacity:1;stroke:none;font-family:FreeSans;-inkscape-font-specification:Balker Bold" />
      </g>
      <flowRoot
         id="flowRoot2849"
         xml:space="preserve"
         style="font-size:40px;font-style:normal;font-weight:normal;fill:#000000;fill-opacity:1;stroke:none;font-family:Bitstream Vera Sans"><flowRegion
           id="flowRegion2851"><rect
             width="420.22345"
             height="159.09903"
             x="294.96454"
             y="206.69333"
             id="rect2853" /></flowRegion><flowPara
           id="flowPara2855" /></flowRoot>    </g>
  </g>
</svg>
