<?xml version="1.0" encoding="UTF-8" ?>
<!DOCTYPE svg PUBLIC "-//W3C//DTD SVG 1.1//EN" "http://www.w3.org/Graphics/SVG/1.1/DTD/svg11.dtd">
<svg width="1000pt" height="1000pt" viewBox="0 0 1000 1000" version="1.1" xmlns="http://www.w3.org/2000/svg">
<path fill="#ffffff" d=" M 0.00 0.00 L 1000.00 0.00 L 1000.00 1000.00 L 0.00 1000.00 L 0.00 0.00 Z" />
<path fill="#000000" d=" M 479.35 5.24 C 489.52 4.39 499.79 5.12 510.00 4.87 C 513.87 4.99 517.80 4.52 521.64 5.25 C 527.20 6.69 533.03 5.08 538.61 6.30 C 601.51 11.57 663.99 27.84 720.40 56.57 C 733.54 62.79 746.33 69.72 758.69 77.37 C 785.29 94.10 811.03 112.49 833.91 134.05 C 840.22 138.67 845.21 144.79 850.89 150.11 C 855.30 154.69 860.04 158.98 864.23 163.77 C 866.91 168.02 871.26 170.82 874.10 174.94 C 896.35 200.30 915.68 228.18 932.48 257.44 C 938.35 268.10 944.57 278.63 949.13 289.95 C 956.39 304.21 961.89 319.29 967.71 334.18 C 981.24 373.21 990.21 413.89 994.14 454.98 C 993.99 457.72 994.39 460.43 995.01 463.09 C 995.39 468.42 994.59 473.83 996.01 479.06 C 996.24 491.03 996.02 503.02 996.11 515.00 C 996.07 517.54 996.28 520.13 995.74 522.64 C 994.31 527.86 995.86 533.35 994.69 538.61 C 989.70 597.48 975.15 656.01 949.54 709.44 C 941.27 728.43 930.63 746.27 919.76 763.86 C 904.08 787.98 887.16 811.45 867.52 832.47 C 863.60 837.82 858.38 842.04 853.88 846.89 C 847.85 852.85 841.95 858.96 835.79 864.78 C 831.53 867.47 828.64 871.74 824.48 874.53 C 810.01 887.61 794.18 899.07 778.19 910.21 C 762.15 920.83 745.76 931.04 728.49 939.55 C 721.56 944.07 713.61 946.51 706.38 950.45 C 689.58 958.11 672.37 964.91 654.85 970.76 C 617.72 982.54 579.24 990.56 540.43 993.51 C 535.26 994.97 529.80 993.33 524.64 994.74 C 521.79 995.35 518.87 995.08 515.99 995.13 C 503.35 995.04 490.70 995.27 478.07 995.03 C 472.07 993.28 465.74 995.03 459.74 993.35 C 440.87 992.29 422.15 989.03 403.54 985.62 C 373.24 979.46 343.45 970.66 314.77 959.09 C 295.14 951.03 276.08 941.58 257.42 931.49 C 233.86 918.03 211.33 902.77 190.11 885.89 C 181.94 878.70 173.18 872.21 165.64 864.35 C 156.55 857.20 148.87 848.45 140.65 840.34 C 137.24 835.14 132.00 831.55 128.46 826.49 C 114.07 810.36 100.86 793.16 89.02 775.06 C 78.48 759.84 69.04 743.86 60.84 727.26 C 57.22 721.79 55.48 715.38 52.21 709.72 C 27.33 657.64 12.52 600.83 7.48 543.43 C 6.06 538.59 7.57 533.47 6.26 528.63 C 5.62 525.79 5.89 522.87 5.84 519.99 C 5.94 504.35 5.68 488.70 5.97 473.07 C 7.51 467.95 6.21 462.57 7.30 457.40 C 11.63 411.35 21.59 365.54 38.42 322.35 C 42.21 312.66 46.35 303.12 50.53 293.60 C 57.54 280.20 63.49 266.24 71.32 253.28 C 77.96 241.23 85.68 229.84 93.37 218.44 C 102.64 205.48 111.99 192.54 122.44 180.49 C 124.65 177.08 128.08 174.73 130.31 171.34 C 133.30 167.37 137.42 164.42 140.44 160.48 C 143.30 156.39 147.17 153.19 150.60 149.60 C 153.66 146.66 156.47 143.44 159.76 140.74 C 165.10 137.16 168.70 131.58 174.07 128.02 C 188.43 114.86 204.08 103.15 220.09 92.06 C 251.91 69.84 286.70 52.10 322.76 37.85 C 364.01 21.91 407.49 11.95 451.41 7.33 C 455.06 6.34 458.88 7.29 462.55 6.47 C 468.05 4.98 473.85 6.71 479.35 5.24 Z" />
<path fill="#ffffff" d=" M 469.14 18.75 C 476.40 17.98 483.84 19.48 490.99 17.62 C 499.03 17.83 507.22 16.78 515.13 18.52 C 521.03 18.77 526.97 18.22 532.85 18.75 C 537.27 20.34 542.06 18.75 546.51 20.17 C 602.75 24.95 657.97 41.11 709.01 65.21 C 717.34 68.36 724.68 73.51 732.72 77.26 C 764.96 95.55 795.88 116.60 823.14 141.79 C 824.47 142.78 825.85 143.75 827.04 144.94 C 835.23 153.09 843.42 161.24 851.56 169.45 C 854.20 172.16 857.08 174.69 859.20 177.87 C 876.03 195.97 890.90 215.88 904.43 236.58 C 915.00 252.72 924.72 269.41 933.02 286.83 C 936.84 292.42 938.84 298.90 941.92 304.88 C 950.88 326.00 959.23 347.46 965.26 369.62 C 973.02 397.02 978.24 425.23 980.80 453.50 C 982.22 457.94 980.65 462.73 982.21 467.15 C 982.90 472.91 981.92 478.78 982.67 484.54 C 983.55 487.33 983.45 490.26 983.39 493.15 C 661.79 493.19 340.19 493.19 18.58 493.15 C 18.77 487.38 17.86 481.47 19.44 475.84 C 19.94 471.07 18.83 466.16 20.14 461.49 C 22.73 426.48 29.32 391.50 39.90 357.89 C 44.65 341.37 51.31 325.49 57.72 309.57 C 59.78 304.41 62.21 299.43 64.60 294.43 C 68.25 284.66 74.08 275.97 78.59 266.62 C 91.33 244.52 105.07 222.92 120.86 202.86 C 127.16 194.85 133.80 187.14 140.45 179.45 C 144.35 175.97 146.95 171.34 150.92 167.93 C 159.11 160.14 166.48 151.41 175.33 144.37 C 191.64 128.81 209.72 115.20 228.13 102.18 C 239.79 94.32 251.80 86.98 263.96 79.91 C 274.63 73.74 285.83 68.54 296.84 62.99 C 325.47 50.07 355.07 39.15 385.60 31.68 C 408.60 26.21 432.00 22.03 455.50 20.17 C 459.93 18.74 464.72 20.34 469.14 18.75 Z" />
<path fill="#000000" d=" M 392.54 48.59 C 399.01 44.56 406.30 41.59 413.95 40.97 C 419.80 42.05 426.22 41.98 431.14 45.89 C 435.18 49.21 436.07 54.71 439.40 58.56 C 443.63 64.00 447.03 70.13 452.18 74.80 C 456.27 79.39 461.83 82.25 467.38 84.66 C 476.45 88.06 486.24 83.96 493.71 78.73 C 497.39 75.76 500.44 72.10 503.91 68.89 C 508.91 64.18 512.58 58.27 517.41 53.41 C 520.08 50.48 524.38 50.74 527.93 49.82 C 533.43 50.94 535.83 56.18 538.96 60.20 C 537.86 66.37 534.54 71.81 530.46 76.46 C 523.17 82.22 514.90 86.74 508.02 93.02 C 502.62 99.18 497.43 105.79 494.73 113.64 C 488.35 127.11 484.70 141.63 481.21 156.06 C 478.99 163.43 477.16 170.91 475.04 178.31 C 472.81 187.99 469.07 197.22 466.60 206.83 C 471.10 209.82 476.43 211.06 481.78 211.16 C 486.79 212.45 492.01 212.04 497.01 210.98 C 505.20 211.19 514.10 209.53 521.54 213.93 C 522.29 219.05 519.43 223.53 516.57 227.50 C 514.15 227.53 511.72 227.67 509.31 227.43 C 503.13 225.60 496.62 227.17 490.32 226.36 C 485.65 224.98 480.74 225.78 475.95 225.56 C 472.29 225.32 468.83 226.87 465.16 226.69 C 460.91 230.57 457.72 235.58 456.21 241.16 C 451.55 253.60 450.24 266.99 445.67 279.47 C 440.64 293.66 436.76 308.23 433.75 322.97 C 431.79 329.79 429.49 336.54 427.04 343.20 C 422.13 352.90 420.37 364.04 414.08 373.05 C 411.01 377.44 411.52 383.68 407.24 387.27 C 404.53 390.27 402.39 393.73 399.71 396.76 C 396.42 400.58 394.85 405.63 391.15 409.13 C 385.97 414.30 380.83 419.49 375.66 424.66 C 367.09 431.85 357.84 438.33 347.37 442.43 C 336.56 446.34 325.54 450.25 314.01 451.16 C 311.35 451.01 308.77 451.65 306.15 451.94 C 297.54 449.56 288.50 448.59 280.36 444.71 C 272.13 440.91 263.89 435.89 259.03 427.99 C 253.38 417.42 252.04 405.09 253.17 393.30 C 254.77 389.72 256.49 385.97 259.22 383.13 C 265.67 381.26 272.37 380.38 278.91 378.91 C 283.95 380.39 287.78 384.31 290.43 388.70 C 291.83 390.33 290.30 392.36 290.15 394.17 C 289.56 401.15 290.85 408.27 289.19 415.15 C 289.25 417.92 287.70 420.68 288.62 423.41 C 289.22 427.15 291.92 430.00 293.96 433.04 C 300.71 438.35 309.75 439.16 318.02 438.29 C 320.47 437.54 323.03 437.54 325.57 437.34 C 327.98 436.31 329.86 434.42 331.99 432.94 C 335.29 430.07 339.62 428.80 342.96 425.97 C 347.67 421.64 353.63 418.64 357.33 413.25 C 361.47 407.12 366.77 401.73 369.88 394.96 C 372.70 388.90 376.54 383.41 379.26 377.30 C 385.78 366.57 392.12 355.71 397.55 344.40 C 409.33 305.32 420.93 266.18 432.60 227.07 C 432.67 224.02 428.70 223.46 426.32 223.46 C 419.28 221.53 411.86 223.75 404.82 221.93 C 398.55 221.02 392.08 222.58 385.90 220.90 C 383.22 220.26 380.22 221.32 377.71 220.23 C 375.77 217.60 378.18 214.53 378.78 211.84 C 380.06 209.05 380.17 205.48 382.27 203.21 C 389.23 202.33 395.98 204.51 402.92 204.16 C 407.13 205.25 411.46 204.97 415.75 205.27 C 419.04 206.32 422.50 205.95 425.89 206.16 C 430.00 207.01 434.85 208.12 438.56 205.49 C 440.23 203.45 441.10 200.75 441.50 198.15 C 443.01 191.53 445.00 184.99 447.88 178.83 C 450.43 167.55 454.21 156.62 457.48 145.54 C 462.84 129.25 470.66 113.72 481.11 100.08 C 482.43 98.33 483.87 96.62 484.68 94.55 C 474.96 96.62 466.25 102.95 456.00 102.66 C 450.85 104.71 445.67 102.36 440.65 101.15 C 423.52 92.64 415.99 72.93 399.10 64.19 C 394.48 65.04 391.25 68.35 388.74 72.10 C 387.85 79.52 392.27 86.68 398.30 90.73 C 401.03 92.14 401.36 95.48 402.26 98.11 C 403.42 108.82 396.66 120.43 385.77 122.87 C 378.59 123.43 372.28 119.36 366.79 115.19 C 364.85 112.28 363.39 109.02 362.46 105.65 C 361.76 100.26 362.71 94.88 363.73 89.60 C 364.90 82.55 369.79 77.02 372.86 70.76 C 375.54 66.75 377.27 62.10 380.51 58.47 C 384.50 55.17 388.81 52.22 392.54 48.59 Z" />
<path fill="#000000" d=" M 604.47 84.11 C 607.37 80.57 611.97 82.32 615.66 83.31 C 617.86 84.27 620.03 85.57 621.73 87.28 C 623.42 94.14 627.86 99.77 631.22 105.87 C 635.65 112.19 638.97 119.19 643.29 125.58 C 646.70 131.41 648.42 139.31 655.52 141.84 C 657.23 140.11 659.01 138.46 660.66 136.67 C 662.30 134.90 662.91 132.41 664.68 130.72 C 667.79 127.49 671.11 124.45 674.20 121.18 C 681.88 111.86 688.76 101.85 697.10 93.09 C 700.92 88.97 705.98 86.45 710.07 82.67 C 713.24 83.53 716.53 86.10 715.78 89.78 C 713.40 96.18 708.94 101.48 704.66 106.69 C 702.45 110.08 698.82 112.33 697.16 116.10 C 689.87 127.50 682.32 138.71 675.21 150.22 C 670.40 155.46 666.47 161.44 661.81 166.80 C 658.79 169.79 655.88 172.90 652.77 175.79 C 647.80 179.82 641.27 180.43 635.26 181.82 C 632.90 178.52 630.14 175.58 627.40 172.62 C 624.23 167.38 623.13 161.26 621.57 155.43 C 616.12 138.67 609.84 122.10 606.45 104.77 C 604.75 100.33 605.93 95.55 605.24 90.98 C 604.52 88.75 604.40 86.43 604.47 84.11 Z" />
<path fill="#000000" d=" M 626.56 214.49 C 631.30 213.73 636.06 212.32 640.91 213.01 C 648.27 214.40 655.38 217.98 660.44 223.55 C 663.70 228.80 665.06 235.00 666.01 241.04 C 666.06 247.21 664.79 253.93 660.83 258.83 C 654.71 258.10 648.83 260.45 642.72 259.70 C 640.14 250.67 638.40 241.41 635.51 232.47 C 633.41 228.87 628.43 228.63 624.87 230.04 C 617.13 233.30 609.69 237.72 604.05 244.04 C 599.30 248.69 594.55 253.39 591.00 259.07 C 582.08 273.89 574.44 289.77 570.93 306.81 C 569.90 312.50 567.97 318.12 568.34 323.98 C 568.44 329.93 568.23 335.90 568.43 341.85 C 569.58 348.13 570.29 354.56 572.43 360.61 C 575.17 364.84 579.79 367.31 583.37 370.74 C 592.78 373.79 603.33 374.23 612.71 370.80 C 618.72 369.09 623.63 365.03 629.04 362.06 C 636.77 356.50 644.40 350.79 651.81 344.81 C 653.00 343.47 654.82 343.79 656.42 343.66 C 655.67 349.66 653.77 355.98 649.11 360.12 C 645.46 363.46 642.43 367.53 638.16 370.13 C 631.45 374.72 625.36 380.20 618.32 384.30 C 614.98 386.16 611.33 387.31 607.82 388.77 C 601.64 391.35 595.54 394.46 588.85 395.46 C 583.82 395.29 578.50 396.61 573.83 394.12 C 564.89 391.95 556.84 387.02 550.01 380.96 C 547.15 378.32 545.30 374.86 543.36 371.55 C 542.13 367.07 541.12 362.53 539.91 358.05 C 538.20 352.82 539.75 347.23 538.51 341.91 C 539.23 338.01 538.98 334.04 539.14 330.10 C 543.52 306.04 553.87 283.44 566.92 262.90 C 568.96 260.31 571.70 258.33 573.66 255.66 C 575.69 252.37 576.70 248.36 579.80 245.82 C 583.59 241.54 588.54 238.59 592.37 234.36 C 602.49 225.87 613.33 217.30 626.56 214.49 Z" />
<path fill="#ffffff" d=" M 18.58 506.85 C 340.18 506.81 661.79 506.81 983.39 506.85 C 983.38 508.87 983.52 510.91 983.25 512.93 C 981.31 519.69 983.32 526.85 982.01 533.69 C 980.76 537.58 982.08 541.76 980.99 545.68 C 976.27 597.59 962.68 648.87 941.26 696.50 C 934.91 711.25 926.94 725.20 919.38 739.35 C 908.99 756.99 897.75 774.15 885.62 790.64 C 877.50 800.79 869.70 811.27 860.63 820.59 C 857.81 824.71 854.01 827.98 850.55 831.54 C 847.43 834.47 845.36 838.30 842.08 841.08 C 839.14 844.53 835.07 846.69 832.05 850.05 C 828.61 853.30 825.57 857.01 821.70 859.77 C 790.48 887.89 755.27 911.60 717.84 930.68 C 664.64 957.03 606.69 974.75 547.50 979.82 C 543.06 981.25 538.27 979.65 533.85 981.24 C 529.02 981.82 524.12 981.15 519.28 981.54 C 517.21 981.91 515.17 982.57 513.05 982.44 C 503.72 982.29 494.38 982.65 485.07 982.27 C 478.15 980.26 470.76 982.64 463.85 980.54 C 458.14 980.96 452.67 979.41 447.01 979.37 C 443.06 978.09 438.85 978.92 434.89 977.75 C 387.85 971.59 341.98 957.56 298.82 937.98 C 292.08 934.28 284.56 932.16 278.17 927.79 C 266.79 922.16 255.80 915.78 245.16 908.85 C 222.34 894.95 200.99 878.69 180.96 861.05 C 178.77 858.53 175.97 856.69 173.46 854.55 C 164.72 845.94 156.08 837.24 147.42 828.56 C 137.76 817.25 127.48 806.42 118.68 794.36 C 104.37 775.87 91.69 756.15 80.08 735.87 C 68.88 716.86 60.07 696.57 51.81 676.14 C 35.84 635.62 25.18 592.82 21.15 549.51 C 20.03 546.21 20.82 542.70 20.33 539.32 C 18.47 533.65 20.59 527.54 18.71 521.87 C 18.31 516.88 18.64 511.85 18.58 506.85 Z" />
<path fill="#000000" d=" M 761.16 554.03 C 770.62 549.00 781.19 545.18 792.06 545.87 C 795.40 545.70 798.40 547.39 801.44 548.54 C 808.95 551.07 814.87 557.55 817.33 565.00 C 817.10 569.97 819.01 576.66 813.97 579.86 C 808.77 581.98 802.89 582.48 797.33 581.80 C 790.18 578.89 788.10 570.79 784.13 564.90 C 782.03 562.38 778.37 561.75 775.46 563.18 C 768.13 565.36 763.97 572.29 760.58 578.62 C 759.00 581.93 756.23 584.56 754.99 588.04 C 752.77 596.35 749.63 604.40 747.90 612.86 C 744.31 622.84 743.60 633.54 740.85 643.77 C 740.18 647.68 739.02 651.59 739.26 655.59 C 740.64 658.65 744.17 658.32 746.97 658.24 C 755.15 658.72 763.34 655.72 771.45 657.88 C 771.47 660.56 771.48 663.24 771.48 665.93 C 766.00 670.68 758.29 667.80 751.90 669.84 C 746.41 669.61 741.04 670.54 735.66 671.47 C 725.47 721.79 713.98 771.87 703.15 822.07 C 700.17 832.70 696.96 843.32 692.33 853.37 C 689.65 858.71 688.00 864.59 684.41 869.46 C 678.22 880.12 670.35 889.89 660.83 897.75 C 654.15 903.96 644.52 904.52 635.99 906.18 C 628.12 905.99 619.98 907.30 612.36 904.74 C 607.96 903.64 604.35 900.70 600.95 897.85 C 598.93 892.80 598.20 887.37 598.64 881.97 C 600.05 871.99 612.89 867.19 621.25 871.73 C 623.54 874.18 624.96 877.32 627.18 879.85 C 629.75 882.89 631.48 886.95 635.32 888.65 C 636.62 889.30 637.78 890.28 639.21 890.69 C 644.65 889.88 650.22 888.19 654.27 884.27 C 658.03 880.03 661.13 875.14 662.75 869.68 C 665.16 862.06 667.45 854.42 669.65 846.75 C 681.76 789.17 693.72 731.55 705.71 673.94 C 695.59 672.88 685.46 672.04 675.37 670.56 C 674.75 667.66 673.68 663.56 676.73 661.66 C 678.40 660.48 680.41 659.90 682.38 659.43 C 686.75 658.78 691.18 657.57 695.63 658.45 C 699.96 659.37 704.29 660.58 708.78 660.16 C 712.52 656.51 712.64 651.04 714.43 646.43 C 717.10 639.19 717.45 631.36 719.93 624.07 C 723.38 610.96 728.84 598.51 734.21 586.10 C 738.25 578.71 742.32 571.22 747.67 564.68 C 752.15 561.11 756.00 556.69 761.16 554.03 Z" />
<path fill="#000000" d=" M 411.48 647.72 C 418.27 646.56 425.97 649.08 429.70 655.15 C 433.76 662.21 434.29 670.61 433.27 678.52 C 431.53 692.14 424.61 704.30 421.44 717.56 C 418.26 726.79 416.43 736.46 412.52 745.44 C 409.04 755.03 406.20 764.83 402.57 774.36 C 400.06 785.46 394.85 796.41 396.66 808.03 C 397.32 809.61 398.16 811.11 398.91 812.66 C 403.10 812.86 406.02 809.42 409.12 807.12 C 417.35 800.36 421.47 790.23 428.17 782.18 C 430.00 779.69 433.43 780.13 436.11 779.37 C 438.37 780.31 437.48 783.19 437.17 785.03 C 435.64 793.00 430.46 799.44 425.83 805.83 C 421.94 813.65 414.80 819.12 407.48 823.53 C 402.85 825.76 398.34 828.87 393.05 829.10 C 389.73 829.34 386.50 830.53 383.14 830.05 C 379.42 828.63 375.92 826.62 372.71 824.26 C 368.85 818.46 368.36 810.84 370.24 804.24 C 372.51 791.22 376.43 778.59 379.70 765.82 C 382.27 758.85 383.78 751.54 386.58 744.65 C 388.86 738.79 391.62 733.07 392.80 726.85 C 397.33 711.80 403.67 697.29 407.00 681.88 C 407.85 677.32 408.55 672.74 408.21 668.08 C 406.86 667.32 405.50 666.61 404.14 665.91 C 399.45 669.06 394.32 671.49 389.60 674.61 C 385.64 678.29 381.19 681.42 377.32 685.19 C 374.20 689.40 369.90 692.53 366.62 696.58 C 363.06 701.66 358.82 706.23 355.64 711.58 C 349.56 719.44 345.43 728.57 339.66 736.64 C 335.92 742.86 331.78 748.82 327.99 755.01 C 324.16 759.97 322.82 766.24 319.68 771.59 C 312.54 782.92 310.77 796.46 305.70 808.69 C 303.14 814.65 302.01 821.30 298.69 826.87 C 294.50 827.51 290.22 827.00 286.00 827.15 C 281.82 826.98 277.51 827.73 273.46 826.41 C 272.54 820.69 276.68 816.10 277.95 810.83 C 279.22 805.72 280.57 800.63 281.54 795.46 C 285.50 787.68 287.04 779.02 289.70 770.77 C 291.19 764.19 293.48 757.84 295.29 751.35 C 299.24 740.86 301.62 729.91 305.12 719.29 C 309.25 709.34 311.60 698.72 312.72 688.03 C 314.46 682.08 313.17 675.88 311.51 670.08 C 306.60 668.75 303.13 672.98 299.61 675.58 C 292.21 681.10 286.17 688.17 279.52 694.53 C 276.52 698.50 272.95 701.99 269.98 705.99 C 258.36 718.63 250.61 734.06 241.53 748.48 C 236.32 757.71 232.30 767.51 228.07 777.21 C 220.07 793.66 214.15 811.00 207.76 828.12 C 199.63 827.80 191.17 829.32 183.41 826.18 C 185.67 819.37 187.55 812.44 189.87 805.65 C 193.19 791.31 198.57 777.58 202.43 763.40 C 204.55 756.54 206.60 749.66 208.86 742.84 C 211.33 729.82 216.03 717.35 220.95 705.08 C 222.59 699.29 223.87 693.41 225.41 687.60 C 225.77 681.61 226.04 675.49 224.25 669.69 C 221.17 671.40 217.44 672.32 215.09 675.11 C 208.93 683.55 202.17 691.54 195.93 699.93 C 191.87 702.48 186.62 701.20 183.40 697.90 C 185.09 693.12 188.27 689.18 191.06 685.03 C 193.21 682.03 193.14 677.59 196.42 675.45 C 199.60 673.34 202.04 670.38 204.79 667.79 C 211.71 662.76 216.98 655.29 225.32 652.34 C 230.60 649.49 236.74 650.41 242.49 650.51 C 246.27 652.88 250.29 655.80 251.88 660.13 C 251.86 666.78 252.60 673.57 251.07 680.11 C 248.43 700.06 238.49 717.93 233.51 737.26 C 232.88 739.33 232.17 741.38 231.47 743.44 C 232.85 742.15 234.30 740.90 235.33 739.30 C 242.42 728.42 249.94 717.80 256.60 706.65 C 260.68 697.63 268.22 690.93 274.30 683.31 C 278.86 678.54 283.61 673.95 288.25 669.26 C 296.38 662.46 304.55 655.31 314.49 651.25 C 318.49 648.42 323.48 649.64 328.04 649.39 C 331.46 649.25 335.82 650.06 337.17 653.70 C 340.28 662.11 341.99 671.35 340.14 680.25 C 338.64 694.96 333.55 708.94 328.79 722.83 C 326.24 728.49 324.75 734.51 323.37 740.54 C 326.26 736.45 329.95 732.96 332.46 728.61 C 333.42 726.90 334.49 725.26 335.65 723.69 C 340.43 717.62 344.31 710.93 348.29 704.33 C 356.02 694.10 362.68 682.95 372.18 674.20 C 378.68 667.31 385.96 661.14 393.94 656.02 C 399.76 653.21 405.36 649.85 411.48 647.72 Z" />
<path fill="#000000" d=" M 570.62 656.29 C 574.07 656.31 577.69 655.74 580.94 657.27 C 582.18 673.03 578.06 688.46 574.90 703.77 C 573.28 711.50 571.91 719.28 570.13 726.97 C 573.05 731.23 578.46 731.35 583.04 732.35 C 588.36 732.50 593.69 732.47 599.01 732.37 C 601.91 731.72 604.85 731.39 607.83 731.24 C 612.44 729.79 617.37 731.15 621.97 729.57 C 629.32 729.36 636.68 729.56 644.04 729.50 C 644.91 730.28 645.77 731.10 646.60 731.97 C 646.51 735.50 645.64 739.02 644.15 742.23 C 638.39 744.55 632.08 745.04 625.99 746.05 C 610.75 746.32 595.48 745.79 580.26 746.30 C 575.74 747.74 568.94 746.34 566.89 751.75 C 564.02 756.37 562.88 761.66 562.52 767.03 C 562.59 773.59 560.20 779.83 558.90 786.20 C 557.16 797.15 555.48 808.10 553.84 819.07 C 553.80 822.13 553.18 825.13 552.49 828.11 C 547.35 828.14 542.20 828.15 537.06 828.10 C 537.02 817.29 541.99 807.39 543.85 796.90 C 543.78 791.94 544.84 787.06 546.33 782.36 C 548.28 774.20 549.90 765.96 551.59 757.74 C 551.90 755.25 551.73 752.74 551.79 750.26 C 550.10 748.86 548.31 747.10 545.98 747.09 C 525.30 747.05 504.61 747.10 483.93 747.07 C 481.37 747.47 479.59 745.11 479.10 742.88 C 477.20 738.45 479.84 731.75 485.11 731.47 C 508.09 731.38 531.08 731.53 554.06 731.40 C 557.36 729.68 557.26 725.51 558.09 722.37 C 559.45 712.32 560.12 702.23 561.82 692.22 C 562.97 686.12 566.13 680.33 565.42 673.97 C 565.02 667.60 567.75 661.78 570.62 656.29 Z" />
</svg>
